Coordinates
version=1
nRows=13
nColumns=36
inDegrees=yes

Units are S.I. units (second, meters, Newtons, ...)
If the header above contains a line with 'inDegrees', this indicates whether rotational values are in degrees (yes) or radians (no).

endheader
time	pelvis_tilt	pelvis_list	pelvis_rotation	pelvis_tx	pelvis_ty	pelvis_tz	hip_flexion_r	hip_adduction_r	hip_rotation_r	knee_angle_r	knee_angle_r_beta	ankle_angle_r	subtalar_angle_r	mtp_angle_r	hip_flexion_l	hip_adduction_l	hip_rotation_l	knee_angle_l	knee_angle_l_beta	ankle_angle_l	subtalar_angle_l	mtp_angle_l	lumbar_extension	lumbar_bending	lumbar_rotation	arm_flex_r	arm_add_r	arm_rot_r	elbow_flex_r	pro_sup_r	arm_flex_l	arm_add_l	arm_rot_l	elbow_flex_l	pro_sup_l
      4.35000000	    -25.31402588	     -3.79405457	     -4.54042643	      1.59570768	      0.73782809	     -0.46855737	     73.95708344	     -1.99350354	      0.68208287	     83.43429484	      1.45620315	     45.55789692	      1.26387698	     -7.49999987	     73.92860033	    -26.26598401	     -0.59537016	     85.27592717	      1.48834570	     46.01830241	     12.08349155	     -7.49999987	    -49.40225442	     -5.83066474	      6.29225865	     40.29317225	    -17.30231170	      1.34395979	     31.98345536	     92.86874785	     39.47541166	    -15.08403632	     -8.38029413	     26.06811922	     75.67614977
      4.36666670	    -25.21663896	     -3.75738224	     -4.59364917	      1.60339888	      0.73894429	     -0.46809346	     73.75631203	     -1.95065556	      0.76817096	     83.37718422	      1.45520639	     45.60111222	      1.21238444	     -7.49999987	     73.66150795	    -26.18399273	     -0.59170017	     85.21811495	      1.48733669	     46.06954045	     12.03073722	     -7.49999987	    -49.33387446	     -5.73761784	      6.31867927	     39.98969121	    -17.22730209	      1.35016086	     31.93429340	     92.86464885	     39.05842118	    -14.88577508	     -8.37243846	     25.99745940	     75.66826400
      4.38333330	    -24.48670667	     -3.67249156	     -4.68444466	      1.60719116	      0.73885234	     -0.46581446	     72.80611406	     -1.79988364	      1.02693573	     83.33867488	      1.45453427	     45.81201315	      1.08439997	     -7.49999987	     72.42725036	    -26.24400271	     -0.86310438	     85.00416464	      1.48360255	     46.30992913	     12.14930638	     -7.49999987	    -49.97650468	     -5.93751895	      6.34786096	     39.58573802	    -17.15335994	      1.02210914	     32.18521108	     92.75367769	     38.62097035	    -14.71650350	     -8.57632481	     26.44778174	     75.55770338
      4.40000000	    -24.39469508	     -3.64519480	     -4.65058176	      1.59839101	      0.73736301	     -0.46573583	     72.75795111	     -1.76583091	      1.13971175	     83.46611127	      1.45675846	     45.85161020	      1.07710056	     -7.49999987	     72.42440929	    -26.22820281	     -0.83317802	     85.13293882	      1.48585008	     46.34146497	     12.16379511	     -7.49999987	    -49.88848366	     -5.89707566	      6.36053988	     39.57311780	    -17.10845799	      1.02120599	     32.19559361	     92.75188403	     38.62756135	    -14.70085542	     -8.56965302	     26.46433083	     75.55732331
      4.41666670	    -24.39186428	     -3.52307633	     -4.68998158	      1.60209893	      0.73587899	     -0.46251344	     72.94592050	     -1.68838745	      1.29378157	     83.80853027	      1.46273479	     46.13064022	      1.15251053	     -7.49999987	     72.53902869	    -26.36266499	     -0.91703297	     85.38210933	      1.49019893	     46.57691534	     12.39122099	     -7.49999987	    -49.65540260	     -6.08598677	      6.39877961	     39.28552326	    -16.89386168	      0.85493175	     32.18794552	     92.70097463	     38.38132105	    -14.76893167	     -8.51875608	     26.59966857	     75.53845400
      4.43333330	    -24.23858322	     -3.54453260	     -4.67183917	      1.60153862	      0.73816214	     -0.46195107	     72.78423822	     -1.61280794	      1.29645607	     83.90432136	      1.46440666	     46.26353917	      1.03639074	     -7.49999987	     72.43433606	    -26.45496501	     -0.87836406	     85.47818402	      1.49187575	     46.60169766	     12.41100560	     -7.49999987	    -49.68152904	     -6.13944008	      6.52202331	     39.29822269	    -16.91061513	      1.97505054	     32.05368566	     86.88617011	     38.47139693	    -14.80069264	     -7.67183151	     26.50392471	     73.19504943
      4.45000000	    -24.31366435	     -3.51012186	     -4.70755701	      1.60176965	      0.73579598	     -0.46254848	     72.96551581	     -1.55066548	      1.33592230	     84.11541797	      1.46809100	     46.45383293	      1.15710586	     -7.49999987	     72.58038526	    -26.57877835	     -0.87689422	     85.64499491	      1.49478715	     46.62982249	     12.51818085	     -7.49999987	    -49.42366933	     -6.22334654	      6.63765711	     39.18026601	    -16.87120667	      2.47447291	     31.91731385	     84.22062039	     38.28960101	    -14.72978644	     -7.55311548	     26.80540194	     71.89171092
      4.46666670	    -24.19757952	     -3.45545636	     -4.71048601	      1.59729467	      0.73293945	     -0.46448147	     73.12752824	     -1.57807481	      1.37859932	     84.46747894	      1.47423562	     46.48381894	      1.13050782	     -7.49999987	     72.73040706	    -26.68860722	     -0.87156780	     86.00187643	      1.50101591	     46.67672583	     12.54378252	     -7.49999987	    -49.40200661	     -6.23737907	      6.65024591	     39.29887878	    -16.83252756	      2.52351536	     31.98531102	     84.33180852	     38.33717324	    -14.64487985	     -7.48689228	     26.88625175	     71.94521919
      4.48333330	    -24.68990818	     -3.37697848	     -4.75964399	      1.59787956	      0.73652885	     -0.46448943	     73.75134707	     -1.61400915	      1.37201654	     84.51569517	      1.47507715	     46.48787495	      1.24967039	     -7.49999987	     73.41834200	    -26.70946624	     -0.85204696	     86.15019139	      1.50360449	     46.73459106	     12.68023745	     -7.49999987	    -48.79478413	     -6.24764337	      6.78914879	     39.21397469	    -16.93110138	      2.83204977	     31.94630033	     85.27671341	     38.19091240	    -14.61996468	     -7.10186454	     27.17095479	     72.36977509
      4.50000000	    -24.77543027	     -3.28676731	     -4.76916500	      1.59760924	      0.73347807	     -0.46482707	     73.96484860	     -1.73499346	      1.37809281	     84.60411423	      1.47662035	     46.53886343	      1.44330213	     -7.49999987	     73.60474948	    -26.65355624	     -0.89361440	     86.25176372	      1.50537726	     46.62698827	     12.44317390	     -7.49999987	    -48.61726161	     -6.26574305	      6.82620963	     39.21916655	    -17.01427989	      3.30695279	     31.86351520	     82.47504640	     38.21261440	    -14.44151950	     -6.90938522	     27.06706517	     71.03089743
      4.51666670	    -24.67967845	     -3.33787230	     -4.79121394	      1.59803774	      0.73645287	     -0.46447964	     73.80745223	     -1.71635264	      1.31197157	     84.45586448	      1.47403291	     46.32368700	      1.28818301	     -7.49999987	     73.51001811	    -26.66651037	     -0.85582361	     86.17888507	      1.50410529	     46.66952051	     12.52525975	     -7.49999987	    -48.73417590	     -6.12984443	      6.80211047	     39.31155650	    -16.71528640	      1.23605250	     31.98637689	     92.73390353	     38.16469674	    -14.32063467	     -7.89933366	     27.07356291	     75.09763526
      4.53333330	    -24.57865869	     -3.31741070	     -4.78423034	      1.59770166	      0.73633417	     -0.46427686	     73.70100893	     -1.76269531	      1.31732710	     84.38813678	      1.47285084	     46.32328821	      1.44559627	     -7.49999987	     73.42955751	    -26.58614792	     -0.84187903	     86.15755479	      1.50373301	     46.60282426	     12.37928609	     -7.49999987	    -48.73153565	     -6.13981468	      6.82290434	     39.42226936	    -16.77288190	      2.04511305	     31.71800990	     87.68308648	     38.26363608	    -14.18402962	     -7.54183129	     26.78849720	     72.91608434
      4.55000000	    -24.53862857	     -3.32679329	     -4.77405951	      1.60190637	      0.73712210	     -0.46184178	     73.56083584	     -1.72435312	      1.32141009	     84.29211127	      1.47117488	     46.32616065	      1.44788008	     -7.49999987	     73.24982444	    -26.55226638	     -0.83899195	     85.98804066	      1.50077443	     46.61716056	     12.41095585	     -7.49999987	    -48.58605995	     -6.17199968	      6.87352491	     39.28143963	    -16.70512386	      2.08352995	     31.71249949	     87.73293905	     38.04692542	    -14.16586098	     -7.52454373	     26.74077089	     72.93873943
